# xmcd CD database file
#
# Track frame offsets:
#	150
#	15074
#	28535
#	45086
#	57231
#	70593
#	81690
#	97110
#	113163
#	130112
#	145805
#	156721
#	172824
#
# Disc length: 2549 seconds
#
# Revision: 0
# Processed by: cddbd v1.5PL3 Copyright (c) Steve Scherf et al.
# Submitted via: CDex 1.50beta10
#
DISCID=a109f30d
DTITLE=Candi Carpenter - Yesterday and Today
DYEAR=2003
DGENRE=Country
TTITLE0=Blue Moon of Kentucky
TTITLE1=I Will Always Love You
TTITLE2=Walk Softly on this Heart of Mine (Jack Greene)
TTITLE3=Stand By Your Man
TTITLE4=Tennessee Waltz
TTITLE5=I Want to Be a Cowboy's Sweetheart
TTITLE6=There Goes My Everything (Jack Greene)
TTITLE7=I Never Dreamed
TTITLE8=Sweet Memories
TTITLE9=Phantom of the Grand Ole Opry (Jack Greene)
TTITLE10=Leavin on Your Mind
TTITLE11=Country Music Ladies
TTITLE12=Just a Closer Walk with Thee
EXTD=YEAR: 2003
EXTT0=
EXTT1=
EXTT2=
EXTT3=
EXTT4=
EXTT5=
EXTT6=
EXTT7=
EXTT8=
EXTT9=
EXTT10=
EXTT11=
EXTT12=
PLAYORDER=
